<svg width="454" height="310" viewBox="0 0 454 310" fill="none" xmlns="http://www.w3.org/2000/svg">
  <g clip-path="url(#clip0_6001_16968)">
    <path
      d="M412.714 124.693L408.573 123.304V116.359C404.349 116.916 401.814 118.072 397.223 121.452C394.671 128.567 391.802 131.676 379.277 132.72L362.252 144.759C367.212 147.973 370.47 149.104 376.823 150.315C384.663 152.216 389.123 152.576 397.223 152.322C405.274 154.328 410.032 155.032 419.31 155.1C419.31 155.1 443.39 149.235 444.004 147.846C444.617 146.457 440.444 142.068 437.715 138.122C435.84 132.158 434.051 128.892 428.666 123.304H422.991C418.863 114.638 412.999 113.624 412.714 124.693ZM412.714 124.693C418.128 128.682 420.547 128.694 423.298 123.459M363.786 143.524C363.348 142.207 353.951 138.907 349.368 138.739C350.646 136.126 351.833 134.293 353.451 132.411M367.774 120.372C369.781 124.623 369.863 126.603 365.933 128.552C363.338 128.916 361.643 129.04 358.264 128.677M367.774 120.372L378.511 119.446L385.719 115.741C390.643 116.398 393.098 117.82 397.223 121.143M367.774 120.372C363.009 119.14 360.708 119.471 357.191 122.069M353.451 132.411C354.479 131.215 355.681 130 357.191 128.552C357.567 128.599 357.924 128.64 358.264 128.677M353.451 132.411C348.513 128.493 348.275 126.235 353.451 122.069H357.191M357.191 122.069L358.264 128.677M428.819 123.459C431.014 118.525 430.783 115.75 426.979 110.802C424.414 109.36 422.77 109.297 419.463 110.802M419.463 110.802V117.748M419.463 110.802C417.841 94.6722 414.674 83.276 408.573 62.4911M408.573 116.204C410.743 114.494 408.243 81.3525 404.125 65.115M404.125 65.115L408.573 62.4911M404.125 65.115C402.626 64.7063 401.526 64.2108 400.597 63.3454M408.573 62.4911L407.96 60.0215M402.438 52.7671C399.468 54.284 398.402 55.605 397.99 59.0954C398.844 61.1318 399.627 62.4407 400.597 63.3454M402.438 52.7671C403.628 58.0751 404.862 59.5613 407.96 60.0215M402.438 52.7671C403.9 50.459 405.254 49.762 409.493 50.6063C410.361 50.8898 411.087 51.1827 411.678 51.5324M402.438 52.7671C401.513 51.8992 400.692 51.2479 399.83 50.846M407.96 60.0215C410.462 60.3468 411.787 59.8321 413.635 57.5519M407.96 60.0215C410.117 63.2549 411.336 64.9583 413.635 66.6585C413.362 69.1561 413.256 70.4964 413.635 72.2151C416.406 77.5735 418.406 79.2011 422.377 80.8586C421.88 82.8394 421.751 83.9163 422.377 85.6433L433.267 95.5216C431.757 79.352 429.192 73.8038 421.61 70.0542C422.305 68.8018 422.677 68.076 422.837 66.1955C420.324 61.4132 417.936 60.0049 413.635 57.5519M413.635 57.5519C414.034 54.1617 413.465 52.5885 411.678 51.5324M411.678 51.5324C415.507 52.5149 417.514 53.7883 420.997 56.4715C423.443 56.9607 424.703 56.7745 426.979 55.6998C426.707 57.0259 426.647 57.7694 426.979 59.0954C429.646 61.0649 431.168 61.0314 433.881 60.9476C436.144 60.7978 437.409 60.385 439.709 58.4781C440.663 59.7803 441.011 60.3341 441.09 60.9476C442.117 62.5269 446.405 63.4623 452.9 65.115C439.924 45.1779 430.954 45.2981 415.015 45.2041M415.015 45.2041C410.417 46.5383 408.361 47.5382 405.966 49.8346M415.015 45.2041C419.094 43.2741 421.006 41.7247 423.604 37.9498C422.924 35.4825 423.299 33.9482 424.218 31.1585C426.879 31.3137 428.114 31.3415 429.279 31.1585C433.136 24.6148 435.244 21.4383 438.942 18.0389C414.759 23.0393 413.468 27.6926 412.868 36.2519C411.62 34.7455 411.069 34.4029 409.493 34.3998C404.107 38.9568 403.859 41.6641 402.438 46.4389M402.438 46.4389L403.512 50.6063M402.438 46.4389C385.17 15.5335 376.574 11.6799 361.792 12.0193C363.386 17.0152 364.287 19.8032 367.774 22.515C370.175 23.8652 371.929 24.1716 375.443 24.2128C375.114 26.483 374.702 27.5734 373.756 29.3063C374.899 33.7987 376.799 34.6178 380.044 36.2519C382.916 37.2481 384.514 37.39 387.407 37.178C387.615 39.8541 387.896 40.8828 388.48 42.4259L393.388 46.067M399.83 50.846C398.172 50.0719 396.365 50.2228 393.388 51.5324M399.83 50.846L393.388 46.067M393.388 51.5324C390.761 52.3682 388.716 53.1765 386.64 53.8248M393.388 51.5324C392.232 53.159 391.503 54.0744 392.438 57.0095M393.388 46.067C367.603 41.2508 357.409 43.1126 344 51.5324C346.73 54.3337 349.87 54.2814 354.43 55.2368C356.434 55.3361 357.332 54.8038 358.725 53.3846C359.122 55.9149 359.678 56.682 360.872 57.5519C364.279 58.6996 365.746 58.118 368.541 57.5519C371.68 56.5877 372.759 55.325 374.369 52.7671C374.413 54.4894 374.573 55.2559 375.75 55.2368C380.641 55.3506 383.673 54.7511 386.64 53.8248M386.64 53.8248C367.152 66.3953 360.883 74.5663 362.252 92.126C364.701 90.5467 364.953 92.1303 371.455 81.6303C371.964 79.9694 371.826 78.6662 371.455 76.2281C372.697 78.4418 373.535 78.863 375.136 79.1607C378.907 77.3056 380.346 75.1091 382.498 70.5172C383.659 67.6351 384.293 66.0017 383.725 61.7194C384.541 62.8338 385.058 63.2652 386.333 62.9542C389.167 61.243 390.347 59.7279 392.438 57.0095M392.438 57.0095C392.493 57.1831 392.554 57.3637 392.622 57.5519C393.326 58.379 393.925 58.8886 394.818 59.0954M394.818 59.0954C395.436 59.2384 396.193 59.2368 397.223 59.0954M394.818 59.0954C386.359 79.8878 387.973 87.3328 393.388 98.9173C394.451 95.8841 394.726 93.4919 394.818 88.2673C397.264 85.4631 398.087 83.1268 399.37 78.6977C399.909 76.4186 399.87 75.1912 398.91 73.1411C398.239 71.9882 397.866 71.4367 397.223 70.5172C399.132 70.3921 399.791 69.6277 400.597 67.5846V63.3454M363.786 102.467C366.936 100.473 368.618 100.327 371.455 102.467C373.848 100.621 375.056 101.026 377.13 102.467M372.222 91.5086C374.364 90.6897 375.54 90.9712 377.437 92.589C379.291 90.9066 380.337 90.6104 382.192 92.589"
      stroke="currentColor" stroke-width="0.9" />
    <path
      d="M93 280.26C95.5472 278.945 107.321 270.513 111.123 267.438C114.545 264.67 114.166 259.268 113.554 256.037C112.337 249.622 100.738 248.23 98.5398 246.095C95.8469 243.479 96.5402 237.793 97.0475 234.368C97.7827 229.405 102.526 225.509 106.894 222.342C111.586 218.94 120.965 217.33 123.856 214.661C125.304 213.325 125.503 211.228 125.786 209.623C126.1 207.847 125.478 206.272 124.531 205.124C122.105 202.184 110.838 196.767 103.24 191.746C97.9851 188.273 94.8334 184.223 94.3427 182.563C93.4674 179.602 98.3491 176.119 103.576 172.333C107.791 169.281 111.705 168.148 112.764 166.909C113.267 166.32 113.402 165.588 113.437 164.87C113.471 164.153 113.324 163.413 112.801 162.684C111.627 161.05 109.612 160.194 106.532 159.239C100.791 157.46 88.8543 156.587 74.6665 156.394C60.3945 156.199 56.7259 158.026 46.433 158.115C41.2606 158.16 38.3505 155.511 35.1907 152.34C31.1295 148.266 31.013 139.243 32.4339 134.203C33.3182 131.066 37.2166 129.621 40.477 128.083C45.7841 125.578 52.6602 127.927 56.1163 129.766C57.6376 130.575 58.1546 132.336 59.3174 133.06C63.5937 135.723 78.2443 131.413 85.6567 127.895C89.504 126.069 93.9089 117.139 101.262 109.661C103.098 107.793 105.155 107.211 107.659 107.099C113.222 106.851 116.94 110.537 119.334 113.24C122.278 116.565 121.931 122.144 123.45 125.647C124.706 128.542 130.673 130.919 137.72 132.182C149.961 134.375 154.738 133.861 157.698 136.005C160.822 138.268 158.151 146.68 153.924 155.7C151.214 161.482 148.077 164.679 147.666 166.455C147.248 168.259 147.925 170.174 148.751 171.836C150.133 174.615 154.271 176.097 159.17 177.303C168.802 179.673 185.072 181.99 186.914 182.819C187.725 183.184 188.125 183.751 188.376 184.417C189.624 187.727 187.844 191.737 185.99 195.472C183.988 199.505 176.766 208.685 171.285 215.035C168.789 217.927 168.398 221.806 168.47 225.743C168.498 227.277 169.881 228.411 171.447 229.34C175.513 231.751 181.418 229.923 184.233 229.352C189.963 228.191 198.141 229.174 199.036 230.603C201.592 234.684 196.509 245.701 195.152 253.372C195.007 254.188 196 254.55 196.854 254.677C201.074 255.303 209.962 251.809 215.921 250.647C222.294 249.405 232.193 250.258 235.3 251.865C239.857 254.223 239.921 262.034 242.732 265.631C245.89 269.671 253.356 271.365 269.168 272.309C286.578 273.348 291.235 267.976 294.971 265.03C297.656 262.914 296.93 258.665 296.52 255.534C296.012 251.653 290.686 246.19 287.274 242.973C285.994 241.766 284.707 240.772 284.194 239.439C282.796 235.802 291.203 232.649 295.663 231.123C298.261 230.234 300.674 231.197 301.994 232.034C305.154 234.038 307.851 242.289 309.434 248.341C309.671 249.248 310.064 249.864 310.661 250.316C313.94 252.797 320.824 250.62 330.628 245.163C343.823 237.82 346.505 227.566 347.658 221.139C348.371 217.166 344.987 213.314 341.58 209.733C334.924 202.738 321.583 199.512 316.107 197.756C310.627 196 305.138 195.691 301.342 195.988C291 196.796 280.415 203.342 270.687 203.776C264.042 204.073 257.203 200.523 254.442 198.218C251.872 196.071 253.003 188.805 256.599 178.359C258.218 173.656 262.02 170.207 265.065 167.391C266.248 166.296 267.416 164.67 268.53 162.623C269.629 160.602 269.434 158.557 268.932 156.942C268.247 154.74 265.704 152.989 263.579 151.377C260.574 149.096 251.084 150.609 240.538 150.691C235.982 150.726 233.121 148.235 231.677 147.263C228.943 145.422 228.753 141.222 229.048 137.081C229.493 130.835 236.138 128.052 240.555 126.633C247.208 124.495 252.733 125.929 253.812 124.954C255.037 123.847 254.788 121.639 254.652 119.853C254.379 116.252 250.621 112.783 245.671 108.555C235.558 99.9188 220.587 96.9969 218.458 94.128C217.4 92.7026 219.577 90.466 221.721 88.3363C229.273 80.8376 242.251 79.4351 250.774 79.2669C263.561 79.0147 275.096 84.0674 276.647 84.8718C280.957 87.1066 278.349 98.619 275.272 109.799C274.381 113.036 274.466 114.872 275.074 116.451C276.67 120.596 285.786 121.089 295.027 122.76C297.501 123.208 299.079 124.78 300.671 126.486C303.914 129.959 304.152 140.922 303.355 149.975C302.837 155.856 303.012 159.336 303.717 161.085C305.081 164.466 311.267 164.325 318.696 163.769C331.67 162.799 335.498 160.743 339.152 160.859C341.52 160.934 343.43 162.233 344.744 163.036C347.64 164.807 347.976 168.788 349.387 169.518C350.907 170.305 352.991 169.161 354.703 168.197C357.374 166.694 358.206 162.034 358.522 157.029C358.719 153.899 356.693 150.941 356.412 148.022C357.915 145.645 362.273 144.309 363.5 143.76"
      stroke="currentColor" stroke-width="0.9" stroke-linecap="round" />
    <path
      d="M62.5 285.26V276.76M62.5 285.26C53.8616 287.094 49.1791 287.662 41 288.26L25 289.26H18C10.4196 289.083 6.90403 287.921 1 285.26C2.60066 288.305 4.19776 290.249 8.50357 292.976C10.4479 294.208 12.6725 294.916 14.9539 295.22L26.5 296.76C37.7771 297.4 43.788 297.791 61.5 297.76C67.9442 297.362 71.5534 297.026 78 294.76C82.5238 292.621 84.6369 291.052 88 287.76C91.858 282.994 93.1976 279.913 94.5 273.76L79 280.26C72.3776 283.055 68.8124 283.975 62.5 285.26ZM46.5 219.76C54.8141 216.136 58.2351 212.71 62.5 204.76V217.76M46.5 219.76L62.5 243.76M46.5 219.76C38.4411 243.939 30.9876 256.087 12.5 275.26L62.5 276.76M62.5 243.76V217.76M62.5 243.76V269.76M62.5 276.76V269.76M62.5 217.76L92 269.76H62.5"
      stroke="currentColor" stroke-width="0.9" />
  </g>
  <defs>
    <clipPath id="clip0_6001_16968">
      <rect width="454" height="310" fill="white" />
    </clipPath>
  </defs>
</svg>
