<svg width="24" height="24" viewBox="0 0 24 24" fill="none" xmlns="http://www.w3.org/2000/svg">
<path fill-rule="evenodd" clip-rule="evenodd" d="M12 2.00002C17.5229 2.00002 22 6.47714 22 12C22 17.5228 17.5229 22 12 22C6.47717 22 2 17.5229 2 12C2 6.47714 6.47717 2.00002 12 2.00002ZM13.0022 11H11.0022V17H13.0022V11ZM12.0102 6.75C11.2811 6.75 10.7522 7.27594 10.7522 7.98614C10.7522 8.72508 11.2671 9.25003 12.0102 9.25003C12.7243 9.25003 13.2522 8.72503 13.2522 8.00002C13.2522 7.27598 12.7243 6.75 12.0102 6.75Z" fill="#B4C3CD"/>
</svg>
