<svg width="24" height="24" viewBox="0 0 24 24" fill="none" xmlns="http://www.w3.org/2000/svg">
<path d="M15.833 2H9.676C8.15497 2.00121 6.69348 2.59129 5.59801 3.6465C4.50253 4.70171 3.85815 6.14008 3.8 7.66H3C2.80109 7.66 2.61032 7.73902 2.46967 7.87967C2.32902 8.02032 2.25 8.21109 2.25 8.41C2.25 8.60891 2.32902 8.79968 2.46967 8.94033C2.61032 9.08098 2.80109 9.16 3 9.16H3.79V14.85H3.03C2.83109 14.85 2.64032 14.929 2.49967 15.0697C2.35902 15.2103 2.28 15.4011 2.28 15.6C2.28 15.7989 2.35902 15.9897 2.49967 16.1303C2.64032 16.271 2.83109 16.35 3.03 16.35H3.83C3.88945 17.8686 4.53454 19.3052 5.63002 20.3585C6.7255 21.4118 8.18626 22.0001 9.706 22H15.863C16.6364 22.0001 17.4022 21.8478 18.1167 21.5519C18.8312 21.2559 19.4804 20.822 20.0271 20.275C20.5738 19.728 21.0074 19.0786 21.303 18.3639C21.5986 17.6493 21.7505 16.8834 21.75 16.11V7.89C21.7487 7.11461 21.5945 6.34708 21.2964 5.63131C20.9982 4.91553 20.5619 4.26554 20.0124 3.71852C19.4629 3.17149 18.8109 2.73815 18.0937 2.44327C17.3766 2.14839 16.6084 1.99776 15.833 2ZM13.154 5.93C13.6127 5.92972 14.0657 6.03133 14.4803 6.22749C14.8949 6.42364 15.2608 6.70944 15.5515 7.06424C15.8422 7.41904 16.0504 7.83399 16.1612 8.27909C16.272 8.72419 16.2825 9.18834 16.192 9.638C16.1019 10.0874 15.9133 10.5113 15.6397 10.879C15.3661 11.2468 15.0143 11.5493 14.6098 11.7648C14.2052 11.9803 13.7579 12.1034 13.3001 12.1252C12.8422 12.147 12.3852 12.067 11.962 11.891C11.4916 11.6948 11.0769 11.3857 10.7545 10.9911C10.4321 10.5964 10.2119 10.1283 10.1135 9.62831C10.0151 9.12828 10.0416 8.6117 10.1904 8.1243C10.3393 7.63691 10.606 7.19373 10.967 6.834C11.5478 6.25532 12.3341 5.93028 13.154 5.93ZM16.653 17.5C16.4541 17.5 16.2633 17.421 16.1227 17.2803C15.982 17.1397 15.903 16.9489 15.903 16.75C15.903 15.54 14.393 14.5 13.154 14.5C11.915 14.5 10.416 15.5 10.416 16.75C10.416 16.9489 10.337 17.1397 10.1963 17.2803C10.0557 17.421 9.86491 17.5 9.666 17.5C9.46709 17.5 9.27632 17.421 9.13567 17.2803C8.99502 17.1397 8.916 16.9489 8.916 16.75C8.916 14.6 11.156 13 13.154 13C15.154 13 17.402 14.6 17.402 16.75C17.3994 16.9481 17.3196 17.1374 17.1795 17.2775C17.0394 17.4176 16.8511 17.4974 16.653 17.5Z" fill="#B4C3CD"/>
<path d="M14.7542 9.02C14.7569 9.44435 14.5909 9.85237 14.2927 10.1543C13.9945 10.4562 13.5886 10.6273 13.1642 10.63C12.7399 10.6327 12.3319 10.4666 12.0299 10.1684C11.728 9.87026 11.5569 9.46435 11.5542 9.04C11.5516 8.61565 11.7176 8.20763 12.0158 7.9057C12.314 7.60377 12.7199 7.43265 13.1442 7.43C13.5686 7.42735 13.9766 7.59338 14.2785 7.89156C14.5805 8.18974 14.7516 8.59565 14.7542 9.02Z" fill="#F0F5F7"/>
</svg>
