<svg width="24" height="24" viewBox="0 0 24 24" fill="none" xmlns="http://www.w3.org/2000/svg">
<path d="M4.80001 6.0001H0.936007C0.492007 6.0001 0.0480075 6.3841 0.108008 7.0081L1.98001 18.9961C1.98001 18.9961 4.20001 10.1641 4.63201 8.0401C4.76401 7.4041 5.36401 7.2001 5.80801 7.2001H12C12 7.2001 11.16 4.7041 11.076 4.4281C10.932 3.9001 10.668 3.6001 10.14 3.6001H6.16801C5.73601 3.6001 5.32801 3.8761 5.20801 4.3681C5.10001 4.8481 4.80001 6.0001 4.80001 6.0001ZM10.656 6.0001H5.85601C5.85601 6.0001 6.36001 4.8001 6.90001 4.8001H9.45601C10.032 4.8001 10.656 6.0001 10.656 6.0001ZM3.20401 19.5001C2.83201 20.0641 2.29201 20.4001 1.69201 20.4001H20.568C21.216 20.4001 21.672 20.0281 21.804 19.4041C22.332 16.7761 23.82 9.2761 23.82 9.2761C23.904 8.6761 23.46 8.4001 23.076 8.4001H19.2V6.6361C19.2 6.4441 18.888 6.0001 18.408 6.0001H13.896C13.272 6.0001 12.852 6.6961 12.852 6.6961L12 8.4001H6.70801C6.32401 8.4001 5.95201 8.6281 5.88001 9.0001C5.88001 9.0001 3.97201 17.0401 3.81601 17.7961C3.73201 18.2401 3.55201 18.9841 3.20401 19.5001ZM18.456 8.4001H13.2C13.2 8.4001 13.896 7.2001 14.556 7.2001H17.304C18.156 7.2001 18.456 8.4001 18.456 8.4001Z" fill="#F0F5F7"/>
</svg>
