<svg width="24" height="24" viewBox="0 0 24 24" fill="none" xmlns="http://www.w3.org/2000/svg">
<path fill-rule="evenodd" clip-rule="evenodd" d="M12 2C17.5229 2 22 6.47713 22 12C22 17.5228 17.5229 22 12 22C6.47717 22 2 17.5228 2 12C2 6.47713 6.47717 2 12 2ZM13.0022 11H11.0022V17H13.0022V11ZM12.0102 6.74998C11.2811 6.74998 10.7522 7.27592 10.7522 7.98612C10.7522 8.72506 11.2671 9.25002 12.0102 9.25002C12.7243 9.25002 13.2522 8.72502 13.2522 8C13.2522 7.27597 12.7243 6.74998 12.0102 6.74998Z" fill="#F0F5F7"/>
</svg>
