<svg width="24" height="24" viewBox="0 0 24 24" fill="none" xmlns="http://www.w3.org/2000/svg">
<path d="M15.833 2.00002H9.676C8.15497 2.00124 6.69348 2.59132 5.59801 3.64653C4.50253 4.70173 3.85815 6.14011 3.8 7.66002H3C2.80109 7.66002 2.61032 7.73904 2.46967 7.87969C2.32902 8.02035 2.25 8.21111 2.25 8.41002C2.25 8.60894 2.32902 8.7997 2.46967 8.94035C2.61032 9.08101 2.80109 9.16002 3 9.16002H3.79V14.85H3.03C2.83109 14.85 2.64032 14.929 2.49967 15.0697C2.35902 15.2103 2.28 15.4011 2.28 15.6C2.28 15.7989 2.35902 15.9897 2.49967 16.1304C2.64032 16.271 2.83109 16.35 3.03 16.35H3.83C3.88945 17.8686 4.53454 19.3052 5.63002 20.3585C6.7255 21.4119 8.18626 22.0002 9.706 22H15.863C16.6364 22.0002 17.4022 21.8479 18.1167 21.5519C18.8312 21.2559 19.4804 20.822 20.0271 20.275C20.5738 19.728 21.0074 19.0786 21.303 18.364C21.5986 17.6493 21.7505 16.8834 21.75 16.11V7.89002C21.7487 7.11463 21.5945 6.34711 21.2964 5.63133C20.9982 4.91556 20.5619 4.26557 20.0124 3.71854C19.4629 3.17151 18.8109 2.73817 18.0937 2.44329C17.3766 2.14842 16.6084 1.99779 15.833 2.00002ZM13.154 5.93002C13.6127 5.92975 14.0657 6.03136 14.4803 6.22751C14.8949 6.42367 15.2608 6.70947 15.5515 7.06427C15.8422 7.41907 16.0504 7.83401 16.1612 8.27911C16.272 8.72421 16.2825 9.18836 16.192 9.63802C16.1019 10.0875 15.9133 10.5113 15.6397 10.8791C15.3661 11.2468 15.0143 11.5493 14.6098 11.7648C14.2052 11.9803 13.7579 12.1034 13.3001 12.1252C12.8422 12.147 12.3852 12.067 11.962 11.891C11.4916 11.6949 11.0769 11.3858 10.7545 10.9911C10.4321 10.5964 10.2119 10.1284 10.1135 9.62834C10.0151 9.1283 10.0416 8.61172 10.1904 8.12433C10.3393 7.63693 10.606 7.19375 10.967 6.83402C11.5478 6.25535 12.3341 5.9303 13.154 5.93002ZM16.653 17.5C16.4541 17.5 16.2633 17.421 16.1227 17.2804C15.982 17.1397 15.903 16.9489 15.903 16.75C15.903 15.54 14.393 14.5 13.154 14.5C11.915 14.5 10.416 15.5 10.416 16.75C10.416 16.9489 10.337 17.1397 10.1963 17.2804C10.0557 17.421 9.86491 17.5 9.666 17.5C9.46709 17.5 9.27632 17.421 9.13567 17.2804C8.99502 17.1397 8.916 16.9489 8.916 16.75C8.916 14.6 11.156 13 13.154 13C15.154 13 17.402 14.6 17.402 16.75C17.3994 16.9481 17.3196 17.1374 17.1795 17.2775C17.0394 17.4176 16.8511 17.4974 16.653 17.5Z" fill="#F0F5F7"/>
<path d="M14.754 9.02021C14.7566 9.44455 14.5906 9.85257 14.2924 10.1545C13.9942 10.4564 13.5883 10.6276 13.164 10.6302C12.7396 10.6329 12.3316 10.4668 12.0297 10.1686C11.7278 9.87047 11.5566 9.46455 11.554 9.04021C11.5513 8.61586 11.7174 8.20784 12.0155 7.90591C12.3137 7.60397 12.7196 7.43286 13.144 7.43021C13.5683 7.42755 13.9764 7.59358 14.2783 7.89177C14.5802 8.18995 14.7513 8.59586 14.754 9.02021Z" fill="#F0F5F7"/>
</svg>
