<svg width="24" height="24" viewBox="0 0 24 24" fill="none" xmlns="http://www.w3.org/2000/svg">
<mask id="mask0_6441_10692" style="mask-type:alpha" maskUnits="userSpaceOnUse" x="0" y="0" width="24" height="24">
<rect width="24" height="24" fill="#D9D9D9"/>
</mask>
<g mask="url(#mask0_6441_10692)">
<path d="M6 22C5.45 22 4.97917 21.8042 4.5875 21.4125C4.19583 21.0208 4 20.55 4 20V18H3V16H4V13H3V11H4V8H3V6H4V4C4 3.45 4.19583 2.97917 4.5875 2.5875C4.97917 2.19583 5.45 2 6 2H18C18.55 2 19.0208 2.19583 19.4125 2.5875C19.8042 2.97917 20 3.45 20 4V20C20 20.55 19.8042 21.0208 19.4125 21.4125C19.0208 21.8042 18.55 22 18 22H6ZM6 20H18V4H6V6H7V8H6V11H7V13H6V16H7V18H6V20ZM9.5 17H11V13C11.4333 12.8833 11.7917 12.6458 12.075 12.2875C12.3583 11.9292 12.5 11.525 12.5 11.075V7H11.5V10.775H10.75V7H9.75V10.775H9V7H8V11.075C8 11.525 8.14167 11.9292 8.425 12.2875C8.70833 12.6458 9.06667 12.8833 9.5 13V17ZM15 17H16.5V7C15.6667 7 14.9583 7.29167 14.375 7.875C13.7917 8.45833 13.5 9.16667 13.5 10V13H15V17Z" fill="#F0F5F7"/>
</g>
</svg>
