<svg width="24" height="24" viewBox="0 0 24 24" fill="none" xmlns="http://www.w3.org/2000/svg">
<mask id="mask0_6445_10073" style="mask-type:alpha" maskUnits="userSpaceOnUse" x="0" y="0" width="24" height="24">
<rect width="24" height="24" fill="#D9D9D9"/>
</mask>
<g mask="url(#mask0_6445_10073)">
<path d="M18 20.5L14 16.5L18 12.5L19.4 13.9L17.825 15.5H22V17.5H17.825L19.4 19.1L18 20.5ZM4 20C3.45 20 2.97917 19.8042 2.5875 19.4125C2.19583 19.0208 2 18.55 2 18V15C2 14.45 2.19583 13.9792 2.5875 13.5875C2.97917 13.1958 3.45 13 4 13H10C10.55 13 11.0208 13.1958 11.4125 13.5875C11.8042 13.9792 12 14.45 12 15V18C12 18.55 11.8042 19.0208 11.4125 19.4125C11.0208 19.8042 10.55 20 10 20H4ZM6 11.5L4.6 10.1L6.175 8.5H2V6.5H6.175L4.6 4.9L6 3.5L10 7.5L6 11.5ZM14 11C13.45 11 12.9792 10.8042 12.5875 10.4125C12.1958 10.0208 12 9.55 12 9V6C12 5.45 12.1958 4.97917 12.5875 4.5875C12.9792 4.19583 13.45 4 14 4H20C20.55 4 21.0208 4.19583 21.4125 4.5875C21.8042 4.97917 22 5.45 22 6V9C22 9.55 21.8042 10.0208 21.4125 10.4125C21.0208 10.8042 20.55 11 20 11H14Z" fill="#F0F5F7"/>
</g>
</svg>
