<svg width="24" height="24" viewBox="0 0 24 24" fill="none" xmlns="http://www.w3.org/2000/svg">
<path d="M9.00411 3.41616C8.43211 2.60616 7.64011 2.24116 6.80011 2.25016C6.00311 2.25816 5.22711 2.59916 4.57911 3.05316C3.91817 3.51848 3.35459 4.10855 2.92011 4.79016C2.51011 5.43916 2.21411 6.20616 2.25411 6.95516C2.44711 10.5582 4.47411 14.4082 7.32111 17.2572C10.1661 20.1032 13.9651 22.0812 17.8011 21.7032C18.5531 21.6292 19.2641 21.2462 19.8451 20.7582C20.446 20.2492 20.937 19.6231 21.2881 18.9182C21.6281 18.2262 21.8311 17.4282 21.7191 16.6512C21.6031 15.8412 21.1501 15.1172 20.3171 14.6372C20.1445 14.537 19.9738 14.4337 19.8051 14.3272C19.6551 14.2342 19.4951 14.1332 19.3011 14.0172C18.9049 13.7728 18.4867 13.566 18.0521 13.3992C17.6051 13.2362 17.0941 13.1292 16.5621 13.2022C16.0111 13.2782 15.4991 13.5382 15.0561 14.0042C14.7151 14.3642 14.2131 14.4762 13.5071 14.2722C12.7891 14.0642 11.9811 13.5482 11.2791 12.8502C10.5771 12.1542 10.0461 11.3402 9.81911 10.6052C9.59511 9.87716 9.69411 9.34216 10.0441 8.97316C10.5171 8.47516 10.7691 7.92116 10.8221 7.33516C10.8741 6.76516 10.7321 6.22916 10.5291 5.76116C10.2251 5.06216 9.70911 4.36716 9.30511 3.82516C9.20353 3.68965 9.10353 3.55298 9.00511 3.41516" fill="#F0F5F7"/>
</svg>
