<svg width="24" height="24" viewBox="0 0 24 24" fill="none" xmlns="http://www.w3.org/2000/svg">
<path d="M4.80001 6.00001H0.936007C0.492007 6.00001 0.0480075 6.38401 0.108008 7.00801L1.98001 18.996C1.98001 18.996 4.20001 10.164 4.63201 8.04001C4.76401 7.40401 5.36401 7.20001 5.80801 7.20001H12C12 7.20001 11.16 4.70401 11.076 4.42801C10.932 3.90001 10.668 3.60001 10.14 3.60001H6.16801C5.73601 3.60001 5.32801 3.87601 5.20801 4.36801C5.10001 4.84801 4.80001 6.00001 4.80001 6.00001ZM10.656 6.00001H5.85601C5.85601 6.00001 6.36001 4.80001 6.90001 4.80001H9.45601C10.032 4.80001 10.656 6.00001 10.656 6.00001ZM3.20401 19.5C2.83201 20.064 2.29201 20.4 1.69201 20.4H20.568C21.216 20.4 21.672 20.028 21.804 19.404C22.332 16.776 23.82 9.27601 23.82 9.27601C23.904 8.67601 23.46 8.40001 23.076 8.40001H19.2V6.63601C19.2 6.44401 18.888 6.00001 18.408 6.00001H13.896C13.272 6.00001 12.852 6.69601 12.852 6.69601L12 8.40001H6.70801C6.32401 8.40001 5.95201 8.62801 5.88001 9.00001C5.88001 9.00001 3.97201 17.04 3.81601 17.796C3.73201 18.24 3.55201 18.984 3.20401 19.5ZM18.456 8.40001H13.2C13.2 8.40001 13.896 7.20001 14.556 7.20001H17.304C18.156 7.20001 18.456 8.40001 18.456 8.40001Z" fill="#B4C3CD"/>
</svg>
