<svg width="24" height="24" viewBox="0 0 24 24" fill="none" xmlns="http://www.w3.org/2000/svg">
<mask id="mask0_6441_10696" style="mask-type:alpha" maskUnits="userSpaceOnUse" x="0" y="0" width="24" height="24">
<rect width="24" height="24" fill="#D9D9D9"/>
</mask>
<g mask="url(#mask0_6441_10696)">
<path d="M6 19.0501L7.975 18.2501C7.80833 17.7668 7.65417 17.2751 7.5125 16.7751C7.37083 16.2751 7.25833 15.7751 7.175 15.2751L6 16.0751V19.0501ZM10 18.0001H14C14.3 17.3334 14.5417 16.5209 14.725 15.5626C14.9083 14.6043 15 13.6251 15 12.6251C15 10.9751 14.725 9.4126 14.175 7.9376C13.625 6.4626 12.9 5.3251 12 4.5251C11.1 5.3251 10.375 6.4626 9.825 7.9376C9.275 9.4126 9 10.9751 9 12.6251C9 13.6251 9.09167 14.6043 9.275 15.5626C9.45833 16.5209 9.7 17.3334 10 18.0001ZM10.5875 12.4126C10.1958 12.0209 10 11.5501 10 11.0001C10 10.4501 10.1958 9.97926 10.5875 9.5876C10.9792 9.19593 11.45 9.0001 12 9.0001C12.55 9.0001 13.0208 9.19593 13.4125 9.5876C13.8042 9.97926 14 10.4501 14 11.0001C14 11.5501 13.8042 12.0209 13.4125 12.4126C13.0208 12.8043 12.55 13.0001 12 13.0001C11.45 13.0001 10.9792 12.8043 10.5875 12.4126ZM18 19.0501V16.0751L16.825 15.2751C16.7417 15.7751 16.6292 16.2751 16.4875 16.7751C16.3458 17.2751 16.1917 17.7668 16.025 18.2501L18 19.0501ZM12 1.9751C13.65 3.1751 14.8958 4.7001 15.7375 6.5501C16.5792 8.4001 17 10.5501 17 13.0001L19.1 14.4001C19.3833 14.5834 19.6042 14.8251 19.7625 15.1251C19.9208 15.4251 20 15.7418 20 16.0751V22.0001L15.025 20.0001H8.975L4 22.0001V16.0751C4 15.7418 4.07917 15.4251 4.2375 15.1251C4.39583 14.8251 4.61667 14.5834 4.9 14.4001L7 13.0001C7 10.5501 7.42083 8.4001 8.2625 6.5501C9.10417 4.7001 10.35 3.1751 12 1.9751Z" fill="#F0F5F7"/>
</g>
</svg>
