<svg width="24" height="24" viewBox="0 0 24 24" fill="none" xmlns="http://www.w3.org/2000/svg">
<mask id="mask0_6441_10693" style="mask-type:alpha" maskUnits="userSpaceOnUse" x="0" y="0" width="24" height="24">
<rect width="24" height="24" fill="#D9D9D9"/>
</mask>
<g mask="url(#mask0_6441_10693)">
<path d="M2 20V17.2C2 16.6333 2.14167 16.1125 2.425 15.6375C2.70833 15.1625 3.1 14.8 3.6 14.55C4.6 14.05 5.6375 13.6667 6.7125 13.4C7.7875 13.1333 8.88333 13 10 13C10.4167 13 10.8333 13.0292 11.25 13.0875C11.6667 13.1458 12.0833 13.2167 12.5 13.3V14.875C11.75 15.2417 11.1458 15.725 10.6875 16.325C10.2292 16.925 10 17.7083 10 18.675V20H2ZM12 20V18.6C12 18.2 12.1042 17.8292 12.3125 17.4875C12.5208 17.1458 12.8167 16.9 13.2 16.75C13.8 16.5 14.4208 16.3125 15.0625 16.1875C15.7042 16.0625 16.35 16 17 16C17.65 16 18.2958 16.0625 18.9375 16.1875C19.5792 16.3125 20.2 16.5 20.8 16.75C21.1833 16.9 21.4792 17.1458 21.6875 17.4875C21.8958 17.8292 22 18.2 22 18.6V20H12ZM15.225 14.275C14.7417 13.7917 14.5 13.2 14.5 12.5C14.5 11.8 14.7417 11.2083 15.225 10.725C15.7083 10.2417 16.3 10 17 10C17.7 10 18.2917 10.2417 18.775 10.725C19.2583 11.2083 19.5 11.8 19.5 12.5C19.5 13.2 19.2583 13.7917 18.775 14.275C18.2917 14.7583 17.7 15 17 15C16.3 15 15.7083 14.7583 15.225 14.275ZM7.175 10.825C6.39167 10.0417 6 9.1 6 8C6 6.9 6.39167 5.95833 7.175 5.175C7.95833 4.39167 8.9 4 10 4C11.1 4 12.0417 4.39167 12.825 5.175C13.6083 5.95833 14 6.9 14 8C14 9.1 13.6083 10.0417 12.825 10.825C12.0417 11.6083 11.1 12 10 12C8.9 12 7.95833 11.6083 7.175 10.825Z" fill="#F0F5F7"/>
</g>
</svg>
