<svg width="24" height="24" viewBox="0 0 24 24" fill="none" xmlns="http://www.w3.org/2000/svg">
<path d="M17 2C17.7956 2 18.5587 2.31607 19.1213 2.87868C19.6839 3.44129 20 4.20435 20 5V21C20 21.181 19.9509 21.3587 19.8579 21.514C19.7648 21.6693 19.6314 21.7965 19.4718 21.8819C19.3121 21.9673 19.1323 22.0078 18.9515 21.999C18.7707 21.9902 18.5956 21.9325 18.445 21.832L16.127 20.287L14.707 21.707C14.5348 21.8792 14.3057 21.9826 14.0627 21.9979C13.8197 22.0132 13.5794 21.9393 13.387 21.79L13.293 21.707L12 20.415L10.707 21.707C10.5348 21.8792 10.3057 21.9826 10.0627 21.9979C9.81965 22.0132 9.5794 21.9393 9.387 21.79L9.293 21.707L7.872 20.287L5.555 21.832L5.536 21.844L5.482 21.874L5.454 21.891L5.4 21.914L5.35 21.937L5.301 21.952L5.241 21.971L5.189 21.98L5.132 21.991L5.048 21.997L5.022 22H5L4.951 21.997H4.912L4.899 21.994H4.883L4.842 21.986L4.804 21.981L4.789 21.976L4.771 21.974L4.737 21.963L4.697 21.953L4.678 21.946L4.663 21.942L4.634 21.929L4.594 21.914L4.573 21.903L4.56 21.898L4.532 21.882L4.496 21.864L4.482 21.854L4.464 21.844L4.426 21.817L4.404 21.803L4.394 21.794L4.374 21.78L4.329 21.739L4.317 21.731L4.293 21.707L4.258 21.668L4.238 21.648L4.231 21.637L4.22 21.625L4.188 21.58L4.168 21.555L4.156 21.536L4.126 21.482L4.109 21.454L4.086 21.4L4.063 21.35C4.04964 21.3147 4.03828 21.2786 4.029 21.242L4.019 21.185L4.009 21.132L4 21V5C4 4.20435 4.31607 3.44129 4.87868 2.87868C5.44129 2.31607 6.20435 2 7 2H17ZM13 6C12.2044 6 11.4413 6.31607 10.8787 6.87868C10.3161 7.44129 10 8.20435 10 9V11H9C8.73478 11 8.48043 11.1054 8.29289 11.2929C8.10536 11.4804 8 11.7348 8 12C8 12.2652 8.10536 12.5196 8.29289 12.7071C8.48043 12.8946 8.73478 13 9 13H10C9.99997 13.2449 9.91004 13.4813 9.74728 13.6644C9.58453 13.8474 9.36025 13.9643 9.117 13.993L9 14C7.713 14 7.668 15.864 8.867 15.993L9 16H15C15.2652 16 15.5196 15.8946 15.7071 15.7071C15.8946 15.5196 16 15.2652 16 15L15.993 14.883C15.9643 14.6397 15.8474 14.4155 15.6644 14.2527C15.4813 14.09 15.2449 14 15 14H11.829L11.877 13.852C11.9587 13.5754 12.0002 13.2884 12 13H13C13.2652 13 13.5196 12.8946 13.7071 12.7071C13.8946 12.5196 14 12.2652 14 12C14 11.7348 13.8946 11.4804 13.7071 11.2929C13.5196 11.1054 13.2652 11 13 11H12V9C12 8.73478 12.1054 8.48043 12.2929 8.29289C12.4804 8.10536 12.7348 8 13 8C13.2652 8 13.5196 8.10536 13.7071 8.29289C13.8946 8.48043 14 8.73478 14 9C14 9.26522 14.1054 9.51957 14.2929 9.70711C14.4804 9.89464 14.7348 10 15 10C15.2652 10 15.5196 9.89464 15.7071 9.70711C15.8946 9.51957 16 9.26522 16 9C16 8.20435 15.6839 7.44129 15.1213 6.87868C14.5587 6.31607 13.7956 6 13 6Z" fill="#F0F5F7"/>
</svg>
