<svg width="24" height="24" viewBox="0 0 24 24" fill="none" xmlns="http://www.w3.org/2000/svg">
<mask id="mask0_6445_10079" style="mask-type:alpha" maskUnits="userSpaceOnUse" x="0" y="0" width="24" height="24">
<rect width="24" height="24" fill="#D9D9D9"/>
</mask>
<g mask="url(#mask0_6445_10079)">
<path d="M3 21V15H5V17.6L8.1 14.5L9.5 15.9L6.4 19H9V21H3ZM15 21V19H17.6L14.5 15.9L15.9 14.5L19 17.6V15H21V21H15ZM8.1 9.5L5 6.4V9H3V3H9V5H6.4L9.5 8.1L8.1 9.5ZM15.9 9.5L14.5 8.1L17.6 5H15V3H21V9H19V6.4L15.9 9.5Z" fill="#F0F5F7"/>
</g>
</svg>
